<?xml version="1.0" encoding="utf-8"?><!-- Generator: Adobe Illustrator 23.0.3, SVG Export Plug-In . SVG Version: 6.00 Build 0) --><svg version="1.2" baseProfile="tiny" id="Calque_1" xmlns="http://www.w3.org/2000/svg" xmlns:xlink="http://www.w3.org/1999/xlink" x="0px" y="0px" viewBox="0 0 120 77" xml:space="preserve"><rect fill-rule="evenodd" fill="#FFBE00" width="120" height="77"/><g><path d="M22.6,30.59l-1.82,3.56c-1.15-0.81-2.39-1.22-3.73-1.22c-1.48,0-2.63,0.59-3.44,1.77c-0.69,1.03-1.04,2.33-1.04,3.88 c0,1.57,0.37,2.86,1.11,3.88c0.82,1.13,1.99,1.7,3.51,1.7c0.57,0,1.28-0.16,2.14-0.47c0.86-0.32,1.43-0.47,1.71-0.47 c0.44,0,0.83,0.19,1.19,0.57c0.36,0.38,0.53,0.79,0.53,1.22c0,1.07-0.74,1.9-2.2,2.49c-1.13,0.47-2.32,0.7-3.56,0.7 c-2.78,0-4.99-0.94-6.63-2.81c-1.57-1.79-2.35-4.09-2.35-6.9c0-2.73,0.82-5,2.45-6.83c1.69-1.89,3.89-2.83,6.58-2.83 c0.97,0,1.94,0.15,2.93,0.44C21.13,29.58,22,30.02,22.6,30.59z"/><path d="M27.78,31.97v13.22l-4.07,3V31.97c0-1.95,0.68-2.93,2.03-2.93C27.1,29.04,27.78,30.02,27.78,31.97z"/><path d="M43.08,48.1l-3.88-1.45c-0.87,1.03-2.01,1.55-3.41,1.55c-1.87,0-3.38-0.74-4.53-2.23c-1.07-1.36-1.6-2.99-1.6-4.92 c0-1.92,0.57-3.57,1.7-4.94c1.19-1.49,2.73-2.23,4.6-2.23c1.36,0,2.44,0.48,3.25,1.43c0.42-0.85,1.06-1.28,1.91-1.28 c1.31,0,1.96,0.98,1.96,2.93V48.1z M39.04,41c0-0.87-0.2-1.61-0.61-2.2c-0.47-0.69-1.12-1.04-1.94-1.04c-0.84,0-1.5,0.34-1.99,1.02 c-0.42,0.61-0.63,1.36-0.63,2.23c0,0.9,0.2,1.66,0.61,2.27c0.47,0.69,1.14,1.04,2.01,1.04c0.83,0,1.47-0.36,1.94-1.09 C38.84,42.61,39.04,41.87,39.04,41z"/><path d="M64.7,45.18c0,1.97-0.68,2.95-2.03,2.95c-1.36,0-2.03-0.98-2.03-2.95v-4.81c0-2.06-0.62-3.1-1.86-3.1 c-1.35,0-2.03,1.02-2.03,3.05v4.86c0,1.97-0.68,2.95-2.03,2.95c-1.36,0-2.04-0.98-2.04-2.95v-4.81c0-2.06-0.61-3.1-1.82-3.1 c-1.36,0-2.03,1.01-2.03,3.03v7.83l-4.07-2.99v-8.37l3.1-2.68c0.26,0.18,0.54,0.52,0.85,1.02c0.79-0.89,1.86-1.33,3.22-1.33 c1.73,0,3.08,0.65,4.07,1.94c1.13-1.29,2.5-1.94,4.12-1.94c1.55,0,2.72,0.52,3.51,1.55c0.73,0.94,1.09,2.2,1.09,3.8V45.18z"/><path d="M70.97,31.44c0,0.64-0.22,1.2-0.67,1.67c-0.44,0.47-0.99,0.7-1.63,0.7c-0.68,0-1.24-0.23-1.68-0.68 c-0.44-0.45-0.67-1.02-0.67-1.69c0-0.66,0.23-1.22,0.68-1.67c0.45-0.45,1.01-0.68,1.67-0.68c0.64,0,1.19,0.23,1.63,0.69 C70.75,30.24,70.97,30.8,70.97,31.44z M70.63,45.19l-4.02,3V37.25c0-1.97,0.68-2.95,2.04-2.95c1.31,0,1.97,0.98,1.97,2.95V45.19z" /><path d="M85.87,42.14c0,1.87-0.65,3.29-1.94,4.26c-1.15,0.87-2.68,1.31-4.6,1.31h-4.12c-1.02,0-1.74-0.19-2.18-0.58 c-0.44-0.39-0.65-1.08-0.65-2.08V32.31l2.88-2.95h3.44c1.61,0,2.93,0.35,3.95,1.04c1.18,0.79,1.77,1.96,1.77,3.51 c0,1.76-0.75,2.97-2.25,3.63c1.16,0.27,2.07,0.81,2.73,1.61S85.87,40.95,85.87,42.14z M80.4,34.71c0-1.21-0.71-1.82-2.13-1.82 h-1.72v3.59h1.77c0.58,0,1.07-0.15,1.48-0.46C80.19,35.71,80.4,35.27,80.4,34.71z M81.46,42.05c0-1.36-0.96-2.03-2.88-2.03h-2.03 v4.07h2.08C80.51,44.08,81.46,43.4,81.46,42.05z"/><path d="M99.69,42.26c0,1.94-0.54,3.41-1.61,4.42c-1.07,1.01-2.59,1.51-4.54,1.51c-1.95,0-3.46-0.5-4.51-1.5 c-1.1-1.02-1.65-2.49-1.65-4.43v-5.59l4.07-2.88v7.61c0,2,0.69,3,2.08,3c0.85,0,1.44-0.31,1.77-0.92c0.21-0.44,0.32-1.13,0.32-2.08 v-4.14c0-1.97,0.68-2.96,2.03-2.96c1.36,0,2.03,0.98,2.03,2.95V42.26z"/><path d="M111.98,43.54c0,1.44-0.57,2.59-1.72,3.46c-1.06,0.79-2.33,1.19-3.8,1.19c-1.15,0-2.2-0.22-3.17-0.65 c-1.23-0.55-1.84-1.35-1.84-2.4c0-0.48,0.14-0.91,0.42-1.27c0.28-0.36,0.66-0.54,1.13-0.54c0.44,0,1.07,0.2,1.9,0.59 s1.46,0.59,1.9,0.59c0.74,0,1.11-0.27,1.11-0.82c0-0.42-0.74-0.92-2.2-1.5c-1.24-0.48-2.14-0.97-2.69-1.45 c-0.81-0.69-1.21-1.6-1.21-2.71c0-1.32,0.53-2.4,1.58-3.22c0.97-0.74,2.14-1.11,3.51-1.11c1.6,0,3.12,0.43,4.55,1.28l-1.77,3.05 c-0.31-0.21-0.76-0.4-1.37-0.57c-0.61-0.17-1.1-0.26-1.49-0.26c-0.66,0-0.99,0.24-0.99,0.73c0,0.36,0.53,0.74,1.6,1.16 c1.7,0.66,2.88,1.32,3.55,1.97C111.64,41.71,111.98,42.54,111.98,43.54z"/></g></svg>